<?xml version="1.0" standalone="no"?>
<!DOCTYPE svg PUBLIC "-//W3C//DTD SVG 20010904//EN"
 "http://www.w3.org/TR/2001/REC-SVG-20010904/DTD/svg10.dtd">
<svg version="1.0" xmlns="http://www.w3.org/2000/svg"
 width="175.000000pt" height="175.000000pt" viewBox="0 0 175.000000 175.000000"
 preserveAspectRatio="xMidYMid meet">
<metadata>
Created by potrace 1.11, written by Peter Selinger 2001-2013
</metadata>
<g transform="translate(0.000000,175.000000) scale(0.100000,-0.100000)"
fill="#000000" stroke="none">
<path d="M375 1659 c-4 -6 -5 -11 -4 -13 2 -1 25 -14 51 -29 32 -19 52 -39 66
-69 18 -38 48 -197 67 -360 l7 -58 -241 0 c-159 0 -240 -3 -236 -10 3 -5 16
-10 29 -10 12 0 31 -6 42 -14 18 -13 19 -30 22 -247 5 -310 -2 -349 -63 -349
-13 0 -27 -4 -30 -10 -4 -7 81 -10 249 -10 l254 0 22 66 c12 36 25 63 28 60 3
-4 18 -90 33 -193 17 -114 33 -190 41 -195 9 -6 26 6 54 37 22 25 48 45 58 45
36 0 116 111 116 160 0 18 78 125 420 576 102 135 160 196 178 189 8 -3 27 9
43 26 20 21 41 33 69 36 31 4 40 10 38 22 -2 12 -45 27 -158 57 -219 58 -220
59 -220 40 0 -8 10 -21 23 -27 88 -45 99 -104 38 -192 -57 -80 -331 -444 -420
-557 l-75 -95 -12 40 c-6 22 -35 203 -64 403 -51 346 -53 365 -41 425 8 34 15
71 16 82 1 17 10 20 53 23 61 4 71 25 20 41 -41 13 -452 121 -461 121 -3 0 -9
-5 -12 -11z m158 -589 c13 -11 28 -32 32 -47 3 -15 10 -30 14 -33 4 -3 19 -81
33 -175 19 -128 22 -172 14 -180 -7 -5 -24 -27 -40 -48 -42 -57 -70 -67 -190
-67 -130 0 -128 -3 -124 157 l3 118 96 3 c95 3 98 2 118 -24 12 -15 21 -35 21
-45 0 -11 5 -19 10 -19 6 0 10 43 10 110 0 112 -8 136 -25 78 -14 -47 -45 -59
-145 -56 l-85 3 -3 109 c-1 61 0 116 2 123 4 10 34 13 119 13 99 0 118 -3 140
-20z"/>
</g>
</svg>
